<svg width="480" height="309" viewBox="0 0 480 309" fill="none" xmlns="http://www.w3.org/2000/svg">
<g clip-path="url(#clip0_2286_687)">
<rect width="480" height="309" fill="white"/>
<path d="M1520.52 2254.89C1428.88 2189.89 1302.81 2214.7 1206.33 2264.21C1103.57 2317.2 1000.41 2407.9 871.599 2405.32C716.472 2402.18 634.654 2269.26 599.439 2156.33C561.344 2033.85 562.784 1905.09 562.915 1779.24C562.915 1414.84 654.552 1056.84 729.301 699.855C756.661 569.295 794.101 361.613 621.301 290.103C441.693 215.786 353.591 370.032 322.566 494.979C266.929 719.5 278.057 949.41 273.213 1177.64C270.158 1300.6 271.031 1423.53 275.831 1546.41C280.413 1666.31 293.373 1785.75 302.013 1904.97C309.344 2003.43 316.282 2102.1 339.846 2198.99C364.849 2302.38 408.966 2404.09 483.846 2488.17C630.203 2653.3 874.61 2703.04 1103.05 2653.98C1231.46 2625.08 1351.88 2574.56 1457.29 2505.35C1526.15 2461.11 1596.97 2396.9 1569.35 2316.63C1560.8 2292.26 1543.76 2270.72 1520.52 2254.89Z" fill="white"/>
<path d="M328.082 1526.85C323.5 1646.75 310.54 1766.19 301.9 1885.41C294.569 1983.98 287.631 2082.54 264.068 2179.42C239.064 2282.82 195.079 2384.52 120.068 2468.61C-26.42 2633.74 -270.697 2683.47 -499.134 2634.42C-627.519 2605.52 -747.93 2555.03 -853.374 2485.9C-922.102 2441.55 -993.185 2377.34 -965.433 2297.07C-956.813 2272.67 -939.68 2251.12 -916.342 2235.33C-824.705 2170.22 -698.639 2195.14 -602.814 2244.65C-500.05 2297.63 -396.894 2388.34 -267.948 2385.65C-112.951 2382.61 -31.1329 2249.81 4.08166 2136.88C42.3072 2014.29 40.7361 1885.52 40.7361 1759.79C40.7361 1687.72 37.0708 1615.87 30.6562 1544.25C-55.4317 1591.52 -149.726 1626.75 -248.704 1648.65C-452.268 1692.32 -679.396 1656.06 -827.847 1523.03C-902.597 1453.9 -957.586 1370.81 -988.473 1280.33C-1022.77 1184.79 -1021.07 1091.28 -1020.28 992.602C-1021.6 897.553 -1014.77 802.55 -999.862 708.358C-993.316 659.973 -984.415 611.702 -972.502 563.654C-941.607 438.708 -849.709 294.228 -669.97 368.657C-560.661 413.561 -540.108 542.1 -557.65 633.48C-581.345 756.181 -641.039 843.969 -678.741 963.414C-710.814 1064.45 -742.756 1183.78 -690.392 1283.92C-649.156 1362.5 -544.167 1398.65 -448.865 1398.76C-368.617 1398.76 -291.773 1376.31 -219.25 1347.35C-156.151 1322.2 -95.2785 1296.72 -58.493 1243.17C-0.761975 1159.31 -5.08214 1072.31 -25.1113 984.969C-48.4131 883.934 -103.657 787.839 -126.828 686.243C-147.773 593.852 -164.268 497.532 -137.431 404.58C-120.675 346.766 -81.5332 296.81 -17.7804 270.429C161.958 196.112 249.929 350.246 280.955 475.192C336.591 699.714 325.464 929.736 330.308 1157.85C333.537 1280.89 332.795 1403.89 328.082 1526.85Z" fill="white"/>
<path d="M213.166 267.22C320.248 336.175 436.778 255.646 480 208.533L480 -41L-6.46379e-05 -41L-4.08009e-05 193.036C68.8 176.391 168.227 238.282 213.166 267.22Z" fill="#B44368"/>
<path d="M623.391 215.921C615.543 221.145 606.322 224.64 596.534 226.102C586.762 227.606 576.711 227.067 567.234 224.53C548.163 219.66 531.443 209.629 519.573 195.934C498.741 173.229 489.185 144.396 492.978 115.689C494.262 105.805 497.202 96.1324 501.707 86.969C467.841 115.244 423.945 133.025 376.968 137.497C353.207 139.987 329.097 137.327 306.844 129.762C295.676 126.039 285.532 120.365 277.057 113.102C268.582 105.838 261.96 97.1428 257.612 87.5678C252.058 72.6476 250.712 56.81 253.684 41.3567C259.703 -7.47549 279.03 -54.4094 310.103 -95.6549C325.262 -116.164 346.101 -133.138 370.764 -145.067C395.427 -156.996 423.148 -163.508 451.456 -164.023C499.117 -162.651 560.134 -150.824 584.284 -106.634C588.794 -99.4747 590.298 -91.204 588.543 -83.2074C586.789 -75.2108 581.882 -67.9742 574.646 -62.7106C567.41 -57.447 558.284 -54.4761 548.798 -54.2958C539.312 -54.1155 530.041 -56.7367 522.541 -61.7201C505.548 -71.127 492.221 -85.3747 474.763 -93.8085C459.946 -100.483 443.353 -103.72 426.627 -103.199C409.902 -102.678 393.625 -98.4173 379.412 -90.8392C351.262 -74.9148 330.923 -50.6702 322.266 -22.7201C317.319 -9.06148 316.242 5.41165 319.123 19.4987C321.659 33.396 330.509 45.8664 343.739 54.182C355.141 59.4375 367.947 62.0437 380.887 61.7416C393.827 61.4396 406.449 58.2399 417.5 52.4603C439.456 40.8356 460.535 28.0348 480.612 14.134C500.635 -0.0649809 526.407 -6.87559 552.278 -4.80454C558.794 -3.98177 564.989 -1.84225 570.352 1.43758C575.715 4.71741 580.091 9.04357 583.121 14.0592C586.899 23.1767 586.588 33.1736 582.248 42.1052C577.557 50.8578 572.302 59.3797 566.506 67.6312C555.552 83.3507 549.761 101.319 549.746 119.631C549.573 128.999 552.031 138.265 556.913 146.647C561.795 155.029 568.958 162.28 577.796 167.789C586.797 172.283 596.376 175.866 606.34 178.468C615.476 181.188 625.544 183.159 632.12 189.696C633.355 190.784 634.276 192.104 634.812 193.551C635.347 194.997 635.481 196.531 635.204 198.031C634.775 201.549 633.505 204.954 631.472 208.032C629.44 211.11 626.688 213.796 623.391 215.921Z" fill="url(#paint0_linear_2286_687)"/>
<path d="M444.475 162.289C424.107 147.842 396.086 153.357 374.642 164.36C351.801 176.138 328.872 196.299 300.241 195.725C265.761 195.026 247.575 165.483 239.748 140.381C231.281 113.159 231.601 84.5388 231.63 56.5676C231.63 -24.4267 251.998 -103.999 268.612 -183.346C274.694 -212.365 283.015 -258.527 244.607 -274.421C204.686 -290.939 185.104 -256.655 178.208 -228.884C165.842 -178.98 168.315 -127.878 167.238 -77.1503C166.559 -49.8195 166.753 -22.497 167.82 4.81712C168.839 31.4659 171.719 58.0148 173.64 84.5139C175.269 106.397 176.811 128.33 182.049 149.863C187.606 172.844 197.412 195.451 214.055 214.14C246.586 250.844 300.91 261.898 351.684 250.994C380.226 244.572 406.992 233.341 430.421 217.957C445.726 208.126 461.467 193.854 455.328 176.013C453.428 170.596 449.641 165.807 444.475 162.289Z" fill="url(#paint1_linear_2286_687)"/>
<path d="M152.97 -82.4186C151.952 -55.7698 149.071 -29.2209 147.151 -2.72183C145.521 19.186 143.979 41.0939 138.742 62.6275C133.184 85.6083 123.407 108.215 106.735 126.904C74.1752 163.608 19.8801 174.662 -30.8942 163.758C-59.4302 157.335 -86.1937 146.114 -109.631 130.747C-124.907 120.891 -140.706 106.618 -134.538 88.7773C-132.622 83.3539 -128.814 78.5643 -123.626 75.0537C-103.259 60.5815 -75.238 66.1208 -53.939 77.1246C-31.0978 88.902 -8.16942 109.063 20.4912 108.464C54.942 107.791 73.1277 78.2724 80.9548 53.1707C89.4511 25.9231 89.1019 -2.69688 89.1019 -30.6431C89.1019 -46.6623 88.2873 -62.6316 86.8615 -78.551C67.7268 -68.0458 46.7681 -60.2132 24.7684 -55.3456C-20.4775 -45.6393 -70.9608 -53.6988 -103.957 -83.267C-120.571 -98.6337 -132.794 -117.102 -139.659 -137.213C-147.282 -158.447 -146.904 -179.232 -146.729 -201.165C-147.021 -222.292 -145.504 -243.408 -142.19 -264.344C-140.736 -275.098 -138.757 -285.827 -136.109 -296.507C-129.242 -324.279 -108.816 -356.392 -68.8658 -339.849C-44.5698 -329.868 -40.0016 -301.298 -43.9006 -280.987C-49.1671 -253.714 -62.4354 -234.202 -70.8153 -207.653C-77.9441 -185.196 -85.0437 -158.672 -73.4049 -136.415C-64.2394 -118.948 -40.9036 -110.914 -19.721 -110.889C-1.88448 -110.889 15.1955 -115.879 31.3153 -122.317C45.34 -127.906 58.8702 -133.57 67.0464 -145.472C79.8782 -164.111 78.918 -183.449 74.4661 -202.862C69.2869 -225.319 57.0079 -246.678 51.8578 -269.259C47.2022 -289.795 43.536 -311.204 49.5009 -331.864C53.2253 -344.714 61.9253 -355.818 76.0956 -361.682C116.046 -378.2 135.599 -343.941 142.495 -316.169C154.861 -266.265 152.388 -215.138 153.465 -164.436C154.182 -137.088 154.017 -109.749 152.97 -82.4186Z" fill="url(#paint2_linear_2286_687)"/>
</g>
<defs>
<linearGradient id="paint0_linear_2286_687" x1="443.884" y1="38.5" x2="309.959" y2="150.986" gradientUnits="userSpaceOnUse">
<stop offset="0.0719763" stop-color="#B44368"/>
<stop offset="1" stop-color="#B74C6F"/>
</linearGradient>
<linearGradient id="paint1_linear_2286_687" x1="373.981" y1="152.5" x2="276.097" y2="258.976" gradientUnits="userSpaceOnUse">
<stop stop-color="#B74C6F"/>
<stop offset="1" stop-color="#B44368"/>
</linearGradient>
<linearGradient id="paint2_linear_2286_687" x1="117.088" y1="-2.5" x2="27.6316" y2="179.593" gradientUnits="userSpaceOnUse">
<stop stop-color="#B44368"/>
<stop offset="1" stop-color="#B74C6F"/>
</linearGradient>
<clipPath id="clip0_2286_687">
<rect width="480" height="309" fill="white"/>
</clipPath>
</defs>
</svg>
