<svg width="412" height="917" viewBox="0 0 412 917" fill="none" xmlns="http://www.w3.org/2000/svg">
<g clip-path="url(#clip0_2427_11265)">
<rect width="412" height="917" fill="url(#paint0_linear_2427_11265)"/>
<path d="M463.716 268.242C458.378 272.086 452.105 274.658 445.447 275.734C438.8 276.841 431.963 276.444 425.516 274.577C412.544 270.993 401.17 263.611 393.095 253.533C378.924 236.824 372.424 215.606 375.004 194.48C375.878 187.207 377.877 180.089 380.942 173.345C357.905 194.153 328.046 207.238 296.09 210.529C279.927 212.361 263.526 210.404 248.389 204.837C240.792 202.097 233.892 197.922 228.127 192.576C222.362 187.231 217.857 180.832 214.9 173.786C211.121 162.806 210.206 151.151 212.227 139.779C216.322 103.843 229.469 69.3043 250.606 38.9516C260.918 23.8592 275.093 11.3673 291.87 2.58895C308.647 -6.18943 327.503 -10.9817 346.76 -11.3611C379.181 -10.3512 420.686 -1.64742 437.115 30.8722C440.182 36.1406 441.205 42.2271 440.012 48.1118C438.818 53.9965 435.48 59.3219 430.558 63.1954C425.636 67.0689 419.428 69.2552 412.975 69.3879C406.522 69.5206 400.216 67.5917 395.114 63.9244C383.555 57.0018 374.49 46.5169 362.614 40.3104C352.535 35.3989 341.247 33.0167 329.87 33.4C318.493 33.7833 307.421 36.9187 297.753 42.4955C278.604 54.2143 264.768 72.0561 258.879 92.6246C255.515 102.676 254.782 113.327 256.742 123.694C258.466 133.921 264.487 143.098 273.487 149.217C281.242 153.085 289.954 155.003 298.756 154.78C307.558 154.558 316.144 152.203 323.662 147.95C338.597 139.396 352.936 129.975 366.592 119.746C380.213 109.297 397.744 104.285 415.342 105.809C419.775 106.414 423.989 107.989 427.637 110.402C431.285 112.816 434.262 116 436.323 119.691C438.893 126.4 438.682 133.757 435.729 140.33C432.538 146.771 428.963 153.042 425.021 159.115C417.57 170.683 413.63 183.905 413.62 197.382C413.503 204.276 415.175 211.095 418.496 217.263C421.817 223.431 426.689 228.767 432.701 232.821C438.824 236.128 445.34 238.765 452.118 240.68C458.333 242.681 465.181 244.132 469.654 248.943C470.494 249.743 471.121 250.714 471.485 251.779C471.849 252.844 471.941 253.973 471.752 255.076C471.46 257.665 470.596 260.171 469.214 262.436C467.831 264.701 465.959 266.678 463.716 268.242Z" fill="url(#paint1_linear_2427_11265)" fill-opacity="0.09"/>
<path d="M342.012 228.774C328.156 218.142 309.096 222.2 294.509 230.298C278.971 238.965 263.374 253.802 243.898 253.379C220.443 252.865 208.073 231.124 202.749 212.652C196.989 192.618 197.207 171.557 197.226 150.973C197.226 91.3687 211.081 32.8113 222.383 -25.5808C226.52 -46.9361 232.181 -80.9064 206.054 -92.6032C178.898 -104.759 165.577 -79.5292 160.887 -59.092C152.475 -22.3674 154.157 15.2386 153.425 52.5692C152.963 72.682 153.095 92.7887 153.821 112.889C154.513 132.5 156.473 152.038 157.779 171.539C158.888 187.642 159.937 203.783 163.499 219.629C167.28 236.541 173.95 253.177 185.271 266.931C207.4 293.942 244.353 302.076 278.892 294.052C298.307 289.326 316.514 281.061 332.452 269.74C342.863 262.505 353.571 252.002 349.394 238.873C348.102 234.887 345.525 231.363 342.012 228.774Z" fill="url(#paint2_linear_2427_11265)" fill-opacity="0.09"/>
<path d="M143.719 48.6887C143.026 68.2997 141.067 87.8372 139.76 107.338C138.652 123.46 137.603 139.582 134.04 155.429C130.26 172.34 123.609 188.977 112.268 202.73C90.1197 229.741 53.186 237.875 18.6474 229.851C-0.763849 225.124 -18.9694 216.866 -34.9122 205.558C-45.3035 198.305 -56.051 187.802 -51.8549 174.672C-50.5516 170.681 -47.9612 167.157 -44.4326 164.573C-30.5776 153.923 -11.517 157.999 2.97146 166.097C18.5089 174.764 34.1057 189.601 53.6017 189.16C77.0365 188.665 89.4071 166.942 94.7314 148.469C100.511 128.418 100.273 107.356 100.273 86.7905C100.273 75.0019 99.7192 63.2501 98.7493 51.5349C85.7332 59.2657 71.4763 65.0298 56.5113 68.6118C25.7333 75.7548 -8.60741 69.8237 -31.0526 48.0644C-42.3545 36.756 -50.6686 23.1653 -55.3385 8.36514C-60.5243 -7.26118 -60.2669 -22.557 -60.1482 -38.6974C-60.3468 -54.2444 -59.3148 -69.784 -57.0605 -85.1908C-56.0708 -93.1049 -54.7249 -101.001 -52.9238 -108.86C-48.2527 -129.297 -34.358 -152.929 -7.18232 -140.755C9.34477 -133.41 12.4522 -112.385 9.79997 -97.4384C6.21745 -77.3684 -2.80811 -63.0091 -8.50847 -43.4716C-13.3577 -26.9456 -18.1872 -7.42642 -10.27 8.95275C-4.03524 21.8064 11.8386 27.719 26.2479 27.7373C38.3809 27.7373 49.9994 24.0649 60.9647 19.3274C70.5049 15.2143 79.7086 11.046 85.2704 2.28722C93.9991 -11.4294 93.3459 -25.6602 90.3175 -39.9461C86.7944 -56.4721 78.4418 -72.1902 74.9385 -88.8081C71.7716 -103.92 69.2777 -119.675 73.3352 -134.879C75.8687 -144.336 81.7868 -152.507 91.4259 -156.822C118.602 -168.978 131.902 -143.766 136.593 -123.329C145.005 -86.6047 143.323 -48.9803 144.055 -11.6681C144.544 8.45694 144.431 28.5759 143.719 48.6887Z" fill="url(#paint3_linear_2427_11265)" fill-opacity="0.09"/>
<path d="M339.25 394.033C234.25 351.032 136.75 592.954 -0.250007 447.453L-0.250007 610.829L-0.249997 774.329L-0.249997 915.829L1.75 915.829L412.25 916.533L412.25 432.497C379.25 414.954 383.875 412.308 339.25 394.033Z" fill="#DF9BB1"/>
</g>
<defs>
<linearGradient id="paint0_linear_2427_11265" x1="206" y1="0" x2="206" y2="445" gradientUnits="userSpaceOnUse">
<stop stop-color="#F9E6EC"/>
<stop offset="1" stop-color="#E5B8C7"/>
</linearGradient>
<linearGradient id="paint1_linear_2427_11265" x1="374.514" y1="150.6" x2="341.011" y2="221.178" gradientUnits="userSpaceOnUse">
<stop stop-color="#F68EB0"/>
<stop offset="1" stop-color="white"/>
</linearGradient>
<linearGradient id="paint2_linear_2427_11265" x1="276.698" y1="125.33" x2="218.363" y2="193.416" gradientUnits="userSpaceOnUse">
<stop stop-color="#F68EB0"/>
<stop offset="1" stop-color="white"/>
</linearGradient>
<linearGradient id="paint3_linear_2427_11265" x1="67.9748" y1="61.1204" x2="10.0024" y2="131.314" gradientUnits="userSpaceOnUse">
<stop stop-color="#F68EB0"/>
<stop offset="1" stop-color="white"/>
</linearGradient>
<clipPath id="clip0_2427_11265">
<rect width="412" height="917" fill="white"/>
</clipPath>
</defs>
</svg>
