<svg width="412" height="917" viewBox="0 0 412 917" fill="none" xmlns="http://www.w3.org/2000/svg">
<g clip-path="url(#clip0_2588_663)">
<rect width="412" height="917" fill="white"/>
<path d="M-787.384 719.19C-777.059 748.194 -759.771 774.224 -737.035 794.994C-714.454 815.904 -687.155 831.054 -657.458 839.154C-598.111 856.283 -534.806 853.7 -477.053 831.793C-378.337 797.574 -297.13 725.786 -251.089 632.041C-235.148 599.809 -223.972 565.435 -217.91 529.995C-184.667 672.696 -104.713 800.221 9.27521 892.349C66.4805 939.635 134.62 971.855 207.479 986.071C243.908 993.39 281.46 993.076 317.762 985.148C354.064 977.221 388.325 961.853 418.381 940.016C461.917 903.82 496.284 857.861 518.686 805.878C598.329 647.316 639.543 472.254 638.998 294.833C639.475 207.032 618.207 120.477 577.091 42.8852C535.974 -34.7065 476.287 -100.924 403.351 -149.863C276.115 -225.391 93.7603 -291.429 -55.3011 -197.576C-81.2476 -183.45 -101.522 -160.808 -112.701 -133.473C-123.881 -106.138 -125.28 -75.7848 -116.662 -47.5384C-108.045 -19.2921 -89.9391 5.11681 -65.4019 21.5664C-40.8648 38.0161 -11.3999 45.4986 18.0177 42.7508C80.7352 42.4615 143.388 21.4271 205.429 24.9341C257.145 29.4434 306.79 47.3589 349.46 76.9106C392.129 106.462 426.348 146.628 448.735 193.44C491.023 288.956 496.789 396.656 464.943 496.138C451.207 545.989 425.759 591.84 390.715 629.877C357.003 668.031 309.549 691.292 258.727 694.575C218.713 691.523 180.197 678.048 147.013 655.494C113.829 632.939 87.135 602.09 69.588 566.018C35.0208 493.821 5.02719 419.523 -20.2154 343.565C-44.9171 266.823 -99.1012 203.028 -170.854 166.208C-189.462 157.818 -209.802 153.976 -230.191 155.001C-250.58 156.026 -270.431 161.888 -288.104 172.102C-315.794 193.485 -334.51 224.42 -340.596 258.861C-345.43 293.343 -348.335 328.068 -349.295 362.874C-351.338 429.022 -371.287 493.378 -407.02 549.094C-424.79 577.991 -449.283 602.168 -478.414 619.567C-507.544 636.966 -540.45 647.072 -574.33 649.025C-606.608 647.673 -638.62 642.572 -669.718 633.825C-698.861 626.773 -729.041 615.944 -758.987 624.867C-764.325 626.134 -769.298 628.62 -773.515 632.128C-777.732 635.636 -781.079 640.071 -783.295 645.088C-788.989 656.51 -792.289 668.975 -792.992 681.717C-793.695 694.459 -791.787 707.211 -787.384 719.19Z" fill="#AD335A" fill-opacity="0.05"/>
<path d="M598.68 545.571C405.48 466.481 226.08 911.442 -26 643.826L-26 944.319L-26 1245.04L-26 2095.71L-22.32 2095.71L733 2097L733 616.318C672.279 584.051 680.79 579.183 598.68 545.571Z" fill="#DF9BB1"/>
<path d="M28.4318 -10.292C90.6162 133.237 414.952 -0.0774524 411.532 271.75L566.063 117.219L720.711 -37.4298L732.535 -49.2531L730.576 -51.2123L329.12 -454L-6.6959 -118.184C9.03731 -69.2638 2.00343 -71.2917 28.4318 -10.292Z" fill="#AD335A"/>
<path d="M583.076 746.079C576.34 740.855 568.425 737.36 560.025 735.898C551.637 734.394 543.009 734.933 534.875 737.47C518.506 742.339 504.154 752.371 493.966 766.065C476.085 788.771 467.883 817.604 471.139 846.311C472.24 856.195 474.764 865.868 478.631 875.031C449.563 846.756 411.886 828.975 371.564 824.503C351.169 822.013 330.474 824.673 311.374 832.238C301.788 835.961 293.081 841.635 285.807 848.898C278.532 856.162 272.848 864.857 269.116 874.432C264.349 889.352 263.193 905.19 265.745 920.643C270.911 969.475 287.5 1016.41 314.171 1057.65C327.183 1078.16 345.07 1095.14 366.239 1107.07C387.407 1119 411.201 1125.51 435.5 1126.02C476.408 1124.65 528.781 1112.82 549.51 1068.63C553.381 1061.47 554.672 1053.2 553.166 1045.21C551.66 1037.21 547.448 1029.97 541.237 1024.71C535.026 1019.45 527.193 1016.48 519.051 1016.3C510.909 1016.12 502.952 1018.74 496.513 1023.72C481.928 1033.13 470.489 1047.37 455.504 1055.81C442.787 1062.48 428.544 1065.72 414.188 1065.2C399.832 1064.68 385.861 1060.42 373.661 1052.84C349.499 1036.91 332.041 1012.67 324.611 984.72C320.365 971.061 319.44 956.588 321.913 942.501C324.09 928.604 331.687 916.134 343.042 907.818C352.829 902.562 363.821 899.956 374.927 900.258C386.034 900.56 396.868 903.76 406.354 909.54C425.199 921.164 443.292 933.965 460.524 947.866C477.711 962.065 499.832 968.876 522.038 966.805C527.631 965.982 532.948 963.842 537.551 960.562C542.154 957.283 545.911 952.956 548.511 947.941C551.755 938.823 551.488 928.826 547.762 919.895C543.736 911.142 539.225 902.62 534.25 894.369C524.848 878.649 519.877 860.681 519.865 842.369C519.716 833.001 521.826 823.734 526.016 815.353C530.207 806.971 536.355 799.72 543.941 794.211C551.667 789.717 559.889 786.134 568.441 783.532C576.283 780.812 584.925 778.841 590.569 772.303C591.629 771.216 592.42 769.896 592.879 768.449C593.339 767.003 593.454 765.469 593.216 763.969C592.848 760.451 591.758 757.046 590.013 753.968C588.268 750.89 585.907 748.204 583.076 746.079Z" fill="#FFE8F0" fill-opacity="0.11"/>
<path d="M429.507 799.711C412.025 814.158 387.974 808.643 369.567 797.64C349.962 785.862 330.282 765.701 305.706 766.275C276.111 766.974 260.502 796.517 253.784 821.619C246.516 848.841 246.791 877.461 246.816 905.432C246.816 986.427 264.298 1066 278.559 1145.35C283.778 1174.37 290.921 1220.53 257.954 1236.42C223.689 1252.94 206.881 1218.66 200.962 1190.88C190.347 1140.98 192.47 1089.88 191.546 1039.15C190.963 1011.82 191.13 984.497 192.045 957.183C192.92 930.534 195.392 903.985 197.04 877.486C198.439 855.603 199.763 833.67 204.258 812.137C209.028 789.156 217.445 766.549 231.731 747.86C259.653 711.156 306.281 700.102 349.862 711.006C374.361 717.428 397.334 728.659 417.444 744.043C430.581 753.874 444.093 768.146 438.823 785.987C437.192 791.404 433.941 796.193 429.507 799.711Z" fill="#FFE8F0" fill-opacity="0.11"/>
<path d="M179.299 1044.42C178.425 1017.77 175.952 991.221 174.304 964.722C172.905 942.814 171.582 920.906 167.086 899.372C162.316 876.392 153.924 853.785 139.614 835.096C111.667 798.392 65.0635 787.338 21.4822 798.242C-3.01113 804.665 -25.9832 815.886 -46.1 831.253C-59.2118 841.109 -72.7732 855.382 -67.4785 873.223C-65.834 878.646 -62.5654 883.436 -58.1129 886.946C-40.6304 901.419 -16.5795 895.879 1.70213 884.875C21.3075 873.098 40.9877 852.937 65.588 853.536C95.1584 854.209 110.768 883.728 117.486 908.829C124.779 936.077 124.479 964.697 124.479 992.643C124.479 1008.66 123.78 1024.63 122.556 1040.55C106.132 1030.05 88.1424 1022.21 69.2594 1017.35C30.4233 1007.64 -12.9082 1015.7 -41.2298 1045.27C-55.4907 1060.63 -65.9815 1079.1 -71.8741 1099.21C-78.4176 1120.45 -78.0929 1141.23 -77.943 1163.17C-78.1936 1184.29 -76.8914 1205.41 -74.0469 1226.34C-72.7982 1237.1 -71.0999 1247.83 -68.8272 1258.51C-62.9331 1286.28 -45.4006 1318.39 -11.11 1301.85C9.74409 1291.87 13.6651 1263.3 10.3185 1242.99C5.798 1215.71 -5.59057 1196.2 -12.7834 1169.65C-18.9022 1147.2 -24.9961 1120.67 -15.0061 1098.41C-7.13899 1080.95 12.8909 1072.91 31.0726 1072.89C46.3823 1072.89 61.0426 1077.88 74.8787 1084.32C86.9167 1089.91 98.53 1095.57 105.548 1107.47C116.562 1126.11 115.738 1145.45 111.917 1164.86C107.471 1187.32 96.9316 1208.68 92.5111 1231.26C88.5151 1251.79 85.3682 1273.2 90.4881 1293.86C93.6849 1306.71 101.152 1317.82 113.315 1323.68C147.606 1340.2 164.389 1305.94 170.308 1278.17C180.922 1228.27 178.8 1177.14 179.724 1126.44C180.34 1099.09 180.198 1071.75 179.299 1044.42Z" fill="#FFE8F0" fill-opacity="0.11"/>
<path d="M51.2605 207.921C57.9968 213.145 65.9114 216.64 74.3124 218.102C82.7001 219.606 91.3275 219.067 99.4622 216.53C115.831 211.661 130.183 201.629 140.371 187.935C158.252 165.229 166.454 136.396 163.198 107.689C162.096 97.8054 159.573 88.1324 155.706 78.969C184.774 107.244 222.451 125.025 262.773 129.497C283.168 131.987 303.863 129.327 322.963 121.762C332.549 118.039 341.256 112.365 348.53 105.102C355.805 97.838 361.488 89.1428 365.221 79.5678C369.988 64.6476 371.144 48.81 368.592 33.3567C363.426 -15.4755 346.837 -62.4094 320.166 -103.655C307.154 -124.164 289.267 -141.138 268.098 -153.067C246.929 -164.996 223.136 -171.508 198.837 -172.023C157.928 -170.651 105.556 -158.824 84.8269 -114.634C80.9557 -107.475 79.665 -99.2039 81.1712 -91.2073C82.6773 -83.2107 86.8888 -75.9742 93.0997 -70.7106C99.3106 -65.447 107.144 -62.4761 115.286 -62.2958C123.428 -62.1154 131.385 -64.7366 137.824 -69.7201C152.409 -79.127 163.848 -93.3747 178.833 -101.808C191.55 -108.483 205.793 -111.72 220.149 -111.199C234.505 -110.678 248.476 -106.417 260.675 -98.8392C284.838 -82.9148 302.295 -58.6701 309.726 -30.7201C313.972 -17.0615 314.897 -2.58834 312.424 11.4987C310.247 25.396 302.65 37.8664 291.295 46.182C281.508 51.4375 270.516 54.0437 259.41 53.7417C248.303 53.4396 237.469 50.2399 227.983 44.4603C209.138 32.8356 191.045 20.0348 173.813 6.13406C156.626 -8.06496 134.505 -14.8756 112.299 -12.8045C106.706 -11.9817 101.388 -9.84223 96.7855 -6.5624C92.1826 -3.28256 88.426 1.04359 85.8258 6.05921C82.5822 15.1767 82.8494 25.1736 86.5751 34.1053C90.6013 42.8579 95.112 51.3797 100.087 59.6312C109.489 75.3508 114.46 93.3188 114.472 111.631C114.621 120.999 112.511 130.266 108.32 138.647C104.13 147.029 97.9822 154.28 90.3962 159.789C82.67 164.283 74.4483 167.866 65.8958 170.468C58.0537 173.188 49.4124 175.159 43.7681 181.697C42.7083 182.784 41.9172 184.104 41.4576 185.551C40.998 186.997 40.8827 188.531 41.1207 190.031C41.4888 193.549 42.5793 196.954 44.324 200.032C46.0687 203.11 48.43 205.796 51.2605 207.921Z" fill="#FFE8F0" fill-opacity="0.03"/>
<path d="M204.83 154.289C222.312 139.842 246.363 145.357 264.77 156.36C284.375 168.138 304.055 188.299 328.631 187.725C358.226 187.026 373.835 157.483 380.553 132.381C387.821 105.159 387.546 76.5388 387.521 48.5676C387.521 -32.4267 370.039 -111.999 355.778 -191.346C350.558 -220.365 343.416 -266.527 376.383 -282.421C410.648 -298.939 427.456 -264.655 433.375 -236.884C443.99 -186.98 441.867 -135.878 442.791 -85.1503C443.374 -57.8195 443.207 -30.497 442.291 -3.18288C441.417 23.4659 438.945 50.0148 437.296 76.5139C435.898 98.3968 434.574 120.33 430.079 141.863C425.309 164.844 416.892 187.451 402.606 206.14C374.684 242.844 328.056 253.898 284.475 242.994C259.976 236.572 237.002 225.341 216.893 209.957C203.756 200.126 190.244 185.854 195.514 168.013C197.145 162.596 200.396 157.807 204.83 154.289Z" fill="#FFE8F0" fill-opacity="0.03"/>
</g>
<defs>
<clipPath id="clip0_2588_663">
<rect width="412" height="917" fill="white"/>
</clipPath>
</defs>
</svg>
