<svg width="21" height="21" viewBox="0 0 21 21" fill="none" xmlns="http://www.w3.org/2000/svg">
<path d="M10.5009 3.96246C12.5562 2.1175 15.7325 2.17875 17.7123 4.16269C19.6921 6.14663 19.7601 9.30738 17.9188 11.3689L10.4999 18.7994L3.08121 11.3689C1.23992 9.30738 1.30874 6.14163 3.28769 4.16269C5.26887 2.18151 8.43954 2.11476 10.5009 3.96246ZM16.4736 5.39884C15.1619 4.08445 13.0441 4.03113 11.6699 5.26476L10.5017 6.31334L9.33284 5.26558C7.95461 4.03022 5.84068 4.08457 4.52512 5.40012C3.2216 6.70365 3.15616 8.79139 4.35744 10.1703L10.4999 16.3225L16.6426 10.1703C17.8443 8.79086 17.7791 6.70709 16.4736 5.39884Z" fill="#AD335A"/>
</svg>
