<svg width="412" height="1958" viewBox="0 0 412 1958" fill="none" xmlns="http://www.w3.org/2000/svg">
<g clip-path="url(#clip0_2350_632)">
<rect width="412" height="1958" fill="#FFFBFB"/>
<path d="M-43.0488 500.624C50.9665 638.001 359.809 446.113 412.209 726.679L540.627 541.507L669.142 356.194L678.967 342.026L676.533 340.338L177.391 -7.00004L-101.676 395.402C-75.2948 443.145 -83.0051 442.239 -43.0488 500.624Z" fill="#DF9BB1"/>
<rect y="-7" width="412" height="540" fill="#DF9BB1"/>
<path d="M596.077 601.767C589.341 607.021 581.426 610.536 573.025 612.005C564.637 613.519 556.01 612.976 547.875 610.424C531.507 605.528 517.155 595.44 506.966 581.668C489.086 558.834 480.884 529.838 484.139 500.969C485.241 491.029 487.764 481.302 491.632 472.087C462.563 500.522 424.886 518.403 384.564 522.9C364.169 525.404 343.475 522.729 324.374 515.121C314.789 511.377 306.082 505.672 298.807 498.367C291.533 491.062 285.849 482.318 282.117 472.689C277.349 457.684 276.194 441.757 278.745 426.217C283.912 377.109 300.501 329.91 327.172 288.431C340.183 267.807 358.07 250.736 379.239 238.74C400.408 226.744 424.202 220.195 448.5 219.676C489.409 221.056 541.781 232.95 562.511 277.39C566.382 284.59 567.672 292.907 566.166 300.949C564.66 308.991 560.449 316.268 554.238 321.561C548.027 326.855 540.194 329.842 532.051 330.024C523.909 330.205 515.952 327.569 509.514 322.558C494.928 313.098 483.49 298.769 468.505 290.288C455.787 283.576 441.544 280.321 427.188 280.845C412.832 281.368 398.862 285.653 386.662 293.274C362.5 309.288 345.042 333.67 337.611 361.778C333.365 375.514 332.441 390.069 334.914 404.235C337.09 418.211 344.687 430.752 356.043 439.115C365.829 444.4 376.821 447.021 387.928 446.717C399.034 446.413 409.868 443.195 419.354 437.383C438.2 425.693 456.293 412.82 473.525 398.84C490.712 384.561 512.833 377.712 535.038 379.795C540.631 380.622 545.949 382.774 550.552 386.072C555.155 389.37 558.911 393.721 561.512 398.765C564.755 407.934 564.488 417.987 560.762 426.97C556.736 435.772 552.225 444.342 547.251 452.64C537.849 468.448 532.878 486.518 532.865 504.933C532.717 514.354 534.827 523.673 539.017 532.102C543.207 540.531 549.355 547.824 556.941 553.363C564.667 557.882 572.889 561.486 581.442 564.103C589.284 566.838 597.925 568.82 603.569 575.395C604.629 576.488 605.42 577.816 605.88 579.27C606.339 580.725 606.455 582.268 606.217 583.776C605.849 587.314 604.758 590.738 603.013 593.834C601.269 596.929 598.907 599.63 596.077 601.767Z" fill="#FFE8F0" fill-opacity="0.08"/>
<path d="M442.507 547.833C425.025 533.304 400.974 538.85 382.567 549.916C362.962 561.759 343.282 582.035 318.706 581.457C289.111 580.755 273.502 551.045 266.784 525.801C259.516 498.425 259.791 469.643 259.816 441.514C259.816 360.062 277.298 280.04 291.559 200.245C296.778 171.061 303.921 124.639 270.954 108.655C236.689 92.0435 219.881 126.521 213.962 154.45C203.347 204.636 205.47 256.026 204.546 307.04C203.963 334.526 204.13 362.002 205.046 389.471C205.92 416.27 208.392 442.969 210.04 469.618C211.439 491.624 212.763 513.681 217.258 535.337C222.028 558.447 230.445 581.181 244.731 599.976C272.653 636.888 319.281 648.004 362.862 637.038C387.361 630.58 410.334 619.286 430.444 603.815C443.581 593.929 457.093 579.575 451.823 561.634C450.192 556.186 446.941 551.37 442.507 547.833Z" fill="#FFE8F0" fill-opacity="0.08"/>
<path d="M192.299 301.742C191.425 328.541 188.952 355.24 187.304 381.889C185.905 403.921 184.582 425.952 180.086 447.608C175.316 470.718 166.925 493.453 152.614 512.247C124.667 549.159 78.0636 560.275 34.4823 549.31C9.98892 542.85 -12.9831 531.565 -33.0999 516.112C-46.2118 506.2 -59.7732 491.847 -54.4785 473.905C-52.834 468.451 -49.5653 463.635 -45.1129 460.104C-27.6304 445.55 -3.5795 451.121 14.7022 462.187C34.3075 474.031 53.9877 494.306 78.5881 493.704C108.158 493.026 123.768 463.341 130.486 438.097C137.779 410.696 137.479 381.914 137.479 353.81C137.479 337.7 136.78 321.641 135.556 305.632C119.132 316.196 101.142 324.073 82.2594 328.968C43.4233 338.729 0.091815 330.624 -28.2298 300.889C-42.4907 285.435 -52.9815 266.863 -58.8741 246.638C-65.4175 225.284 -65.0928 204.381 -64.943 182.325C-65.1936 161.079 -63.8914 139.843 -61.0469 118.789C-59.7982 107.974 -58.0999 97.1841 -55.8272 86.4443C-49.9331 58.5158 -32.4006 26.2211 1.89001 42.8578C22.7441 52.895 26.6651 81.6264 23.3185 102.052C18.798 129.479 7.40944 149.101 0.216652 175.8C-5.90221 198.384 -11.9961 225.058 -2.00608 247.441C5.86103 265.006 25.8909 273.086 44.0727 273.111C59.3823 273.111 74.0426 268.092 87.8788 261.618C99.9167 255.998 111.53 250.302 118.548 238.332C129.562 219.588 128.738 200.141 124.917 180.618C120.471 158.035 109.932 136.555 105.511 113.846C101.515 93.1943 98.3682 71.6645 103.488 50.8875C106.685 37.9646 114.152 26.7983 126.315 20.9014C160.606 4.28985 177.389 38.7425 183.308 66.671C193.922 116.857 191.8 168.273 192.724 219.261C193.34 246.763 193.198 274.257 192.299 301.742Z" fill="#FFE8F0" fill-opacity="0.08"/>
<path d="M-13.0488 133.624C80.9665 271.001 389.809 79.1128 442.209 359.679L570.627 174.507L699.142 -10.8059L708.967 -24.9736L706.533 -26.662L207.391 -374L-71.676 28.4022C-45.2948 76.1445 -53.0051 75.2392 -13.0488 133.624Z" fill="#FFFBFB"/>
<path d="M339.5 1405.2C234.5 1362.2 137 1604.12 -1.02502e-05 1458.62L-1.03247e-05 1622L-4.97121e-08 1785.5L3.37482e-06 1957L2 1957L412.5 1957.7L412.5 1443.67C379.5 1426.12 384.125 1423.48 339.5 1405.2Z" fill="#FFDAE6"/>
<path d="M503.145 1151.78C499.698 1161.83 493.836 1170.89 486.073 1178.15C478.363 1185.46 469.001 1190.8 458.783 1193.72C438.366 1199.87 416.502 1199.24 396.477 1191.91C362.261 1180.5 333.935 1156.05 317.66 1123.88C312.026 1112.82 308.028 1101 305.79 1088.79C294.897 1138.18 267.816 1182.53 228.843 1214.8C209.288 1231.36 185.898 1242.76 160.805 1247.96C148.259 1250.64 135.295 1250.68 122.731 1248.09C110.167 1245.5 98.2775 1240.34 87.8132 1232.92C72.6372 1220.6 60.5862 1204.88 52.6414 1187.03C24.5023 1132.61 9.56193 1072.35 9.02728 1011.1C8.50486 980.796 15.4938 950.83 29.371 923.878C43.2482 896.926 63.5824 873.824 88.5608 856.633C132.175 830.042 194.855 806.503 246.693 838.294C255.708 843.064 262.799 850.798 266.769 860.188C270.74 869.579 271.346 880.051 268.487 889.837C265.627 899.622 259.476 908.122 251.073 913.901C242.67 919.679 232.529 922.382 222.363 921.553C200.712 921.709 178.998 914.703 157.596 916.167C139.762 917.934 122.697 924.321 108.088 934.696C93.4789 945.071 81.8303 959.076 74.2928 975.327C60.0844 1008.47 58.5327 1045.67 69.9314 1079.88C74.876 1097.04 83.8477 1112.76 96.0999 1125.75C107.893 1138.78 124.369 1146.62 141.926 1147.54C155.726 1146.33 168.967 1141.52 180.33 1133.6C191.693 1125.68 200.783 1114.92 206.693 1102.4C218.331 1077.33 228.382 1051.56 236.787 1025.24C245.001 998.647 263.445 976.404 288.064 963.401C294.454 960.429 301.46 959.02 308.502 959.291C315.544 959.561 322.421 961.504 328.563 964.958C338.209 972.227 344.796 982.829 347.037 994.694C348.846 1006.58 349.991 1018.55 350.464 1030.56C351.439 1053.39 358.587 1075.52 371.149 1094.61C377.401 1104.51 385.955 1112.76 396.082 1118.65C406.209 1124.54 417.609 1127.89 429.312 1128.43C440.449 1127.83 451.479 1125.94 462.178 1122.79C472.21 1120.24 482.584 1116.38 492.957 1119.33C494.805 1119.75 496.532 1120.59 498.002 1121.78C499.472 1122.98 500.646 1124.49 501.431 1126.22C503.443 1130.14 504.633 1134.42 504.928 1138.82C505.222 1143.22 504.616 1147.63 503.145 1151.78Z" fill="#AD335A" fill-opacity="0.03"/>
<path d="M498.504 166.871C495.725 174.971 490.997 182.267 484.736 188.117C478.519 194.007 470.969 198.309 462.728 200.66C446.263 205.618 428.631 205.107 412.481 199.205C384.888 190.012 362.044 170.315 348.919 144.395C344.375 135.484 341.151 125.961 339.347 116.125C330.562 155.919 308.722 191.647 277.292 217.642C261.523 230.98 242.659 240.164 222.423 244.357C212.306 246.512 201.851 246.548 191.719 244.462C181.587 242.377 171.998 238.215 163.559 232.241C151.32 222.318 141.602 209.649 135.195 195.267C112.502 151.432 100.453 102.882 100.022 53.5395C99.6007 29.1234 105.237 4.98251 116.428 -16.7308C127.62 -38.444 144.018 -57.055 164.162 -70.9044C199.335 -92.3265 249.883 -111.29 291.688 -85.6791C298.958 -81.8359 304.676 -75.6058 307.878 -68.0406C311.08 -60.4753 311.57 -52.0386 309.263 -44.155C306.957 -36.2714 301.997 -29.4238 295.22 -24.7686C288.443 -20.1134 280.265 -17.9358 272.067 -18.6034C254.606 -18.478 237.095 -24.122 219.835 -22.943C205.453 -21.5192 191.691 -16.3739 179.91 -8.01552C168.128 0.342888 158.734 11.6253 152.655 24.7174C141.197 51.4191 139.946 81.3897 149.138 108.951C153.126 122.769 160.361 135.437 170.242 145.9C179.752 156.4 193.039 162.713 207.198 163.459C218.328 162.479 229.006 158.606 238.17 152.224C247.333 145.843 254.663 137.176 259.43 127.087C268.816 106.895 276.921 86.1346 283.699 64.9278C290.323 43.5047 305.198 25.5855 325.052 15.1101C330.205 12.7157 335.855 11.5805 341.534 11.7986C347.213 12.0167 352.759 13.5818 357.712 16.3643C365.491 22.2202 370.803 30.7618 372.61 40.3199C374.07 49.8935 374.992 59.541 375.374 69.2172C376.16 87.6063 381.925 105.439 392.056 120.816C397.098 128.794 403.996 135.437 412.163 140.18C420.329 144.923 429.523 147.626 438.961 148.058C447.943 147.576 456.838 146.052 465.466 143.517C473.556 141.46 481.922 138.35 490.288 140.733C491.778 141.068 493.171 141.743 494.356 142.704C495.542 143.666 496.488 144.889 497.122 146.277C498.744 149.435 499.704 152.89 499.942 156.431C500.179 159.973 499.69 163.525 498.504 166.871Z" fill="#AD335A" fill-opacity="0.03"/>
<path d="M642.275 1398.79C646.545 1389.06 648.36 1378.43 647.561 1367.83C646.835 1357.23 643.56 1346.96 638.013 1337.89C627.152 1319.54 610.63 1305.21 590.93 1297.05C558.021 1282.28 520.621 1281.11 486.863 1293.77C475.228 1298.1 464.284 1304.09 454.372 1311.56C479.791 1267.83 489.878 1216.86 483.034 1166.73C479.848 1141.3 470.349 1117.08 455.402 1096.26C447.978 1085.8 438.466 1076.99 427.466 1070.39C416.466 1063.79 404.218 1059.55 391.496 1057.92C371.988 1056.71 352.473 1060.13 334.54 1067.89C276.995 1088.9 225.205 1123.14 183.351 1167.86C162.451 1189.81 147.311 1216.6 139.281 1245.83C131.25 1275.07 130.58 1305.83 137.328 1335.4C151.431 1384.49 181.632 1444.25 241.308 1455.94C251.172 1458.53 261.626 1457.64 270.905 1453.41C280.185 1449.19 287.72 1441.89 292.239 1432.75C296.759 1423.61 297.985 1413.19 295.712 1403.25C293.438 1393.31 287.803 1384.46 279.76 1378.18C263.928 1363.41 243.204 1353.87 228.441 1338.31C216.511 1324.93 208.274 1308.68 204.544 1291.16C200.814 1273.63 201.72 1255.44 207.172 1238.37C219.15 1204.36 243.191 1175.93 274.739 1158.46C289.99 1149.18 307.238 1143.68 325.048 1142.42C342.55 1140.81 359.982 1146.19 373.532 1157.39C382.866 1167.63 389.357 1180.13 392.359 1193.66C395.361 1207.18 394.769 1221.25 390.642 1234.47C382.243 1260.79 372.196 1286.57 360.563 1311.63C348.609 1336.76 347.128 1365.62 356.447 1391.86C359.138 1398.37 363.341 1404.15 368.708 1408.72C374.075 1413.29 380.451 1416.51 387.31 1418.13C399.331 1419.31 411.356 1415.96 421.037 1408.74C430.413 1401.22 439.361 1393.18 447.84 1384.66C464.009 1368.52 484.254 1357.07 506.422 1351.52C517.727 1348.46 529.604 1348.19 541.044 1350.71C552.483 1353.23 563.145 1358.48 572.122 1366C579.915 1373.98 586.753 1382.84 592.499 1392.4C598.154 1401.07 603.176 1410.93 612.814 1415.78C614.456 1416.72 616.294 1417.28 618.184 1417.39C620.074 1417.51 621.965 1417.19 623.709 1416.45C627.844 1414.93 631.623 1412.57 634.815 1409.54C638.008 1406.5 640.546 1402.85 642.275 1398.79Z" fill="#AD335A" fill-opacity="0.03"/>
</g>
<defs>
<clipPath id="clip0_2350_632">
<rect width="412" height="1958" fill="white"/>
</clipPath>
</defs>
</svg>
