<svg width="65" height="36" viewBox="0 0 65 36" fill="none" xmlns="http://www.w3.org/2000/svg">
<path d="M63.596 33.3714C63.1427 33.7229 62.6102 33.9581 62.0448 34.0565C61.4804 34.1577 60.8999 34.1214 60.3525 33.9507C59.251 33.623 58.2852 32.948 57.5996 32.0265C56.3964 30.4985 55.8445 28.5584 56.0635 26.6266C56.1377 25.9615 56.3075 25.3106 56.5677 24.694C54.6117 26.5967 52.0763 27.7932 49.3629 28.0941C47.9905 28.2616 46.598 28.0827 45.3127 27.5736C44.6676 27.323 44.0817 26.9413 43.5922 26.4525C43.1027 25.9637 42.7202 25.3786 42.4691 24.7343C42.1483 23.7303 42.0705 22.6645 42.2422 21.6246C42.5899 18.3386 43.7062 15.1803 45.5009 12.4049C46.3765 11.0248 47.5801 9.88251 49.0046 9.07981C50.4291 8.2771 52.0302 7.83889 53.6653 7.8042C56.4182 7.89655 59.9424 8.69243 61.3373 11.6661C61.5978 12.1478 61.6846 12.7044 61.5833 13.2425C61.4819 13.7806 61.1985 14.2675 60.7806 14.6217C60.3627 14.9759 59.8356 15.1759 59.2876 15.188C58.7397 15.2001 58.2043 15.0237 57.771 14.6884C56.7896 14.0554 56.0198 13.0966 55.0115 12.5291C54.1557 12.08 53.1973 11.8622 52.2312 11.8972C51.2652 11.9323 50.3251 12.219 49.5041 12.7289C47.8782 13.8005 46.7034 15.432 46.2034 17.3128C45.9177 18.2319 45.8555 19.2058 46.0219 20.1538C46.1683 21.0889 46.6796 21.9281 47.4437 22.4877C48.1022 22.8413 48.8419 23.0167 49.5893 22.9964C50.3367 22.976 51.0657 22.7607 51.704 22.3718C52.9722 21.5896 54.1897 20.7282 55.3493 19.7928C56.5058 18.8373 57.9944 18.379 59.4886 18.5183C59.865 18.5737 60.2228 18.7177 60.5326 18.9384C60.8423 19.1591 61.0951 19.4502 61.2701 19.7877C61.4883 20.4013 61.4704 21.074 61.2197 21.675C60.9487 22.264 60.6452 22.8374 60.3104 23.3927C59.6777 24.4505 59.3433 25.6596 59.3424 26.8919C59.3324 27.5223 59.4744 28.1458 59.7564 28.7098C60.0384 29.2739 60.452 29.7618 60.9625 30.1325C61.4824 30.4349 62.0357 30.676 62.6112 30.8511C63.1389 31.0341 63.7204 31.1668 64.1002 31.6067C64.1715 31.6799 64.2248 31.7687 64.2557 31.8661C64.2866 31.9634 64.2944 32.0666 64.2784 32.1675C64.2536 32.4043 64.1802 32.6334 64.0628 32.8405C63.9454 33.0477 63.7865 33.2284 63.596 33.3714Z" fill="#AD335A"/>
<path d="M26.6576 25.4191C26.4717 25.9613 26.1555 26.4496 25.7367 26.8412C25.3207 27.2354 24.8157 27.5234 24.2644 27.6808C23.163 28.0126 21.9835 27.9785 20.9032 27.5834C19.0574 26.9681 17.5293 25.6496 16.6513 23.9146C16.3473 23.3181 16.1316 22.6807 16.011 22.0223C15.4233 24.686 13.9623 27.0775 11.8599 28.8175C10.8049 29.7103 9.5431 30.3251 8.1894 30.6057C7.51261 30.7499 6.81322 30.7523 6.13545 30.6128C5.45767 30.4732 4.81625 30.1946 4.25174 29.7947C3.43304 29.1305 2.78292 28.2825 2.35433 27.3198C0.8363 24.3856 0.0303143 21.1358 0.00147151 17.833C-0.0267114 16.1987 0.350322 14.5828 1.09896 13.1294C1.84759 11.6759 2.94456 10.4302 4.29207 9.50314C6.64492 8.06922 10.0263 6.79984 12.8228 8.51417C13.3091 8.77142 13.6917 9.18845 13.9059 9.69484C14.1201 10.2012 14.1528 10.766 13.9985 11.2937C13.8443 11.8214 13.5124 12.2797 13.0591 12.5913C12.6058 12.9029 12.0587 13.0487 11.5103 13.004C10.3423 13.0124 9.17088 12.6346 8.0163 12.7135C7.0542 12.8088 6.13363 13.1532 5.34551 13.7127C4.55738 14.2722 3.92898 15.0274 3.52235 15.9038C2.75585 17.6911 2.67214 19.6972 3.28707 21.5421C3.55381 22.467 4.03781 23.315 4.69878 24.0154C5.33496 24.7182 6.2238 25.1408 7.17095 25.1907C7.91544 25.1251 8.62975 24.8658 9.24276 24.4387C9.85577 24.0115 10.3461 23.4314 10.6649 22.756C11.2928 21.4045 11.835 20.0148 12.2884 18.5953C12.7316 17.1613 13.7266 15.9619 15.0547 15.2607C15.3994 15.1004 15.7773 15.0244 16.1572 15.039C16.5372 15.0536 16.9081 15.1584 17.2395 15.3446C17.7598 15.7366 18.1152 16.3084 18.2361 16.9481C18.3337 17.589 18.3954 18.2347 18.421 18.8824C18.4735 20.1133 18.8592 21.307 19.5369 22.3363C19.8742 22.8703 20.3356 23.315 20.8819 23.6324C21.4282 23.9499 22.0432 24.1308 22.6746 24.1597C23.2754 24.1275 23.8704 24.0255 24.4476 23.8558C24.9888 23.7182 25.5484 23.5099 26.1081 23.6695C26.2078 23.6919 26.3009 23.737 26.3802 23.8014C26.4595 23.8658 26.5228 23.9476 26.5652 24.0405C26.6737 24.2519 26.7379 24.4832 26.7538 24.7203C26.7697 24.9573 26.737 25.1951 26.6576 25.4191Z" fill="#AD335A"/>
<path d="M53.2633 29.7625C52.0868 28.7903 50.4684 29.1614 49.2298 29.9019C47.9105 30.6944 46.5862 32.0511 44.9325 32.0125C42.941 31.9654 41.8906 29.9774 41.4385 28.2883C40.9494 26.4564 40.9679 24.5305 40.9696 22.6483C40.9696 17.198 42.146 11.8435 43.1057 6.50402C43.4569 4.55126 43.9376 1.44498 41.7192 0.375411C39.4134 -0.736134 38.2823 1.57091 37.884 3.43972C37.1697 6.79786 37.3126 10.2366 37.2504 13.6501C37.2112 15.4893 37.2224 17.3279 37.284 19.1659C37.3428 20.9591 37.5092 22.7457 37.6201 24.5288C37.7143 26.0014 37.8033 27.4773 38.1058 28.9263C38.4268 30.4728 38.9932 31.994 39.9545 33.2516C41.8334 35.7215 44.9711 36.4654 47.9038 35.7316C49.5523 35.2994 51.0983 34.5437 52.4515 33.5085C53.3355 32.847 54.2447 31.8865 53.8901 30.686C53.7804 30.3215 53.5616 29.9992 53.2633 29.7625Z" fill="#AD335A"/>
<path d="M35.9137 19.0827C35.8549 20.876 35.6885 22.6625 35.5776 24.4457C35.4835 25.9199 35.3944 27.3941 35.0919 28.8432C34.7709 30.3896 34.2062 31.9108 33.2432 33.1685C31.3626 35.6384 28.2266 36.3822 25.294 35.6484C23.6457 35.2162 22.0999 34.4611 20.7462 33.427C19.8639 32.7638 18.9513 31.8034 19.3076 30.6028C19.4183 30.2379 19.6382 29.9156 19.9379 29.6794C21.1143 28.7055 22.7327 29.0782 23.9629 29.8187C25.2822 30.6112 26.6065 31.9679 28.2619 31.9276C30.2518 31.8823 31.3021 29.896 31.7542 28.2068C32.245 26.3733 32.2248 24.4474 32.2248 22.5668C32.2248 21.4889 32.1777 20.4142 32.0954 19.343C30.9902 20.0499 29.7796 20.577 28.509 20.9045C25.8956 21.5577 22.9798 21.0154 21.0739 19.0257C20.1143 17.9916 19.4084 16.7489 19.0118 15.3955C18.5715 13.9666 18.5934 12.568 18.6034 11.092C18.5866 9.67041 18.6742 8.24946 18.8656 6.84064C18.9497 6.11696 19.0639 5.39497 19.2169 4.67632C19.6135 2.80752 20.7933 0.646558 23.1008 1.75978C24.5041 2.43141 24.7679 4.35394 24.5427 5.72071C24.2385 7.55593 23.4722 8.86896 22.9882 10.6555C22.5764 12.1667 22.1663 13.9515 22.8386 15.4492C23.368 16.6246 24.7158 17.1652 25.9393 17.1669C26.9695 17.1669 27.956 16.8311 28.8871 16.3979C29.6972 16.0218 30.4786 15.6407 30.9509 14.8397C31.692 13.5855 31.6366 12.2842 31.3794 10.9779C31.0803 9.46671 30.3711 8.02943 30.0736 6.50987C29.8047 5.128 29.593 3.68735 29.9375 2.29708C30.1526 1.43236 30.6551 0.685176 31.4736 0.290595C33.781 -0.820949 34.9104 1.48441 35.3087 3.35322C36.023 6.71136 35.8801 10.1518 35.9423 13.5636C35.9838 15.4039 35.9742 17.2436 35.9137 19.0827Z" fill="#AD335A"/>
</svg>
