<svg width="412" height="917" viewBox="0 0 412 917" fill="none" xmlns="http://www.w3.org/2000/svg">
<g clip-path="url(#clip0_2237_820)">
<rect width="412" height="917" fill="#DF9BB1"/>
<path d="M544.077 167.921C537.341 173.145 529.426 176.64 521.025 178.102C512.637 179.606 504.01 179.067 495.875 176.53C479.507 171.66 465.155 161.629 454.966 147.934C437.086 125.229 428.884 96.3962 432.139 67.6888C433.241 57.8054 435.764 48.1324 439.632 38.969C410.563 67.2441 372.886 85.025 332.564 89.4969C312.169 91.9867 291.475 89.3272 272.374 81.7617C262.789 78.0387 254.082 72.3653 246.807 65.1016C239.533 57.838 233.849 49.1428 230.117 39.5678C225.349 24.6476 224.194 8.81001 226.745 -6.64328C231.912 -55.4755 248.501 -102.409 275.172 -143.655C288.183 -164.164 306.07 -181.138 327.239 -193.067C348.408 -204.996 372.202 -211.508 396.5 -212.023C437.409 -210.651 489.781 -198.824 510.511 -154.634C514.382 -147.475 515.672 -139.204 514.166 -131.207C512.66 -123.211 508.449 -115.974 502.238 -110.711C496.027 -105.447 488.194 -102.476 480.051 -102.296C471.909 -102.115 463.952 -104.737 457.514 -109.72C442.928 -119.127 431.49 -133.375 416.505 -141.808C403.787 -148.483 389.544 -151.72 375.188 -151.199C360.832 -150.678 346.862 -146.417 334.662 -138.839C310.5 -122.915 293.042 -98.6702 285.611 -70.7201C281.365 -57.0615 280.441 -42.5883 282.914 -28.5013C285.09 -14.604 292.687 -2.13358 304.043 6.18202C313.829 11.4375 324.821 14.0437 335.928 13.7416C347.034 13.4396 357.868 10.2399 367.354 4.46032C386.2 -7.16438 404.293 -19.9652 421.525 -33.866C438.712 -48.065 460.833 -54.8756 483.038 -52.8045C488.631 -51.9818 493.949 -49.8423 498.552 -46.5624C503.155 -43.2826 506.911 -38.9564 509.512 -33.9408C512.755 -24.8233 512.488 -14.8264 508.762 -5.89475C504.736 2.85784 500.225 11.3797 495.251 19.6312C485.849 35.3507 480.878 53.3188 480.865 71.6312C480.717 80.9993 482.827 90.2655 487.017 98.6473C491.207 107.029 497.355 114.28 504.941 119.789C512.667 124.283 520.889 127.866 529.442 130.468C537.284 133.188 545.925 135.159 551.569 141.696C552.629 142.784 553.42 144.104 553.88 145.551C554.339 146.997 554.455 148.531 554.217 150.031C553.849 153.549 552.758 156.954 551.013 160.032C549.269 163.11 546.907 165.796 544.077 167.921Z" fill="#FFE8F0" fill-opacity="0.09"/>
<path d="M390.507 114.289C373.025 99.8421 348.974 105.357 330.567 116.36C310.962 128.138 291.282 148.299 266.706 147.725C237.111 147.026 221.502 117.483 214.784 92.3815C207.516 65.1588 207.791 36.5388 207.816 8.5676C207.816 -72.4267 225.298 -151.999 239.559 -231.346C244.778 -260.365 251.921 -306.527 218.954 -322.421C184.689 -338.939 167.881 -304.655 161.962 -276.884C151.347 -226.98 153.47 -175.878 152.546 -125.15C151.963 -97.8195 152.13 -70.497 153.046 -43.1829C153.92 -16.5341 156.392 10.0148 158.04 36.5139C159.439 58.3968 160.763 80.3297 165.258 101.863C170.028 124.844 178.445 147.451 192.731 166.14C220.653 202.844 267.281 213.898 310.862 202.994C335.361 196.572 358.334 185.341 378.444 169.957C391.581 160.126 405.093 145.854 399.823 128.013C398.192 122.596 394.941 117.807 390.507 114.289Z" fill="#FFE8F0" fill-opacity="0.09"/>
<path d="M140.299 -130.419C139.425 -103.77 136.952 -77.2209 135.304 -50.7218C133.905 -28.814 132.582 -6.90607 128.086 14.6275C123.316 37.6083 114.925 60.2149 100.614 78.904C72.6669 115.608 26.0636 126.662 -17.5177 115.758C-42.0111 109.335 -64.9831 98.1135 -85.0999 82.7466C-98.2118 72.8905 -111.773 58.618 -106.478 40.7773C-104.834 35.3539 -101.565 30.5643 -97.1129 27.0537C-79.6304 12.5815 -55.5795 18.1208 -37.2978 29.1246C-17.6925 40.902 1.98773 61.0632 26.5881 60.4644C56.1584 59.7907 71.7678 30.2724 78.486 5.17068C85.7787 -22.0769 85.479 -50.6969 85.479 -78.6431C85.479 -94.6623 84.7797 -110.632 83.5559 -126.551C67.132 -116.046 49.1425 -108.213 30.2594 -103.346C-8.57667 -93.6393 -51.9082 -101.699 -80.2298 -131.267C-94.4907 -146.634 -104.981 -165.102 -110.874 -185.213C-117.418 -206.447 -117.093 -227.232 -116.943 -249.165C-117.194 -270.292 -115.891 -291.408 -113.047 -312.344C-111.798 -323.098 -110.1 -333.827 -107.827 -344.507C-101.933 -372.279 -84.4006 -404.392 -50.11 -387.849C-29.2559 -377.868 -25.3349 -349.298 -28.6815 -328.987C-33.202 -301.714 -44.5906 -282.202 -51.7833 -255.653C-57.9022 -233.196 -63.9961 -206.672 -54.0061 -184.415C-46.139 -166.948 -26.1091 -158.914 -7.92734 -158.889C7.38231 -158.889 22.0426 -163.879 35.8788 -170.317C47.9167 -175.906 59.53 -181.57 66.548 -193.472C77.562 -212.111 76.7378 -231.449 72.9166 -250.862C68.471 -273.319 57.9316 -294.678 53.5111 -317.259C49.5151 -337.795 46.3682 -359.204 51.4881 -379.864C54.6849 -392.714 62.1524 -403.818 74.3152 -409.682C108.606 -426.2 125.389 -391.941 131.308 -364.169C141.922 -314.265 139.8 -263.138 140.724 -212.436C141.34 -185.088 141.198 -157.749 140.299 -130.419Z" fill="#FFE8F0" fill-opacity="0.09"/>
<path d="M231 214.079C126 171.079 38.0991 189.934 0.999992 237.046L0.999948 916.58L413 916.58L413 252.544C353.947 269.188 275.625 232.354 231 214.079Z" fill="white"/>
<path d="M230 223.499C125 180.499 37.0991 199.354 -8.22586e-06 246.467L-5.18557e-05 916L412 916L412 261.964C352.947 278.609 274.625 241.774 230 223.499Z" fill="white" stroke="#AD335A" stroke-width="0.5"/>
<circle cx="121" cy="199.42" r="3.75" fill="#AD335A" stroke="#AD335A" stroke-width="0.5"/>
<circle cx="199" cy="212.42" r="3.75" fill="white" stroke="#AD335A" stroke-width="0.5"/>
<circle cx="267" cy="238.42" r="3.75" fill="white" stroke="#AD335A" stroke-width="0.5"/>
</g>
<defs>
<clipPath id="clip0_2237_820">
<rect width="412" height="917" fill="white"/>
</clipPath>
</defs>
</svg>
