<svg width="412" height="2113" viewBox="0 0 412 2113" fill="none" xmlns="http://www.w3.org/2000/svg">
<g clip-path="url(#clip0_2402_11138)">
<rect width="412" height="2113" fill="white"/>
<path d="M592.275 625.794C596.545 616.06 598.36 605.427 597.561 594.826C596.835 584.226 593.56 573.957 588.013 564.893C577.152 546.543 560.63 532.209 540.93 524.046C508.021 509.283 470.621 508.106 436.863 520.77C425.228 525.098 414.284 531.092 404.372 538.564C429.791 494.832 439.878 443.858 433.034 393.726C429.848 368.303 420.349 344.078 405.402 323.261C397.978 312.8 388.466 303.991 377.466 297.392C366.466 290.793 354.218 286.546 341.496 284.921C321.988 283.715 302.473 287.132 284.54 294.894C226.995 315.896 175.205 350.14 133.351 394.86C112.451 416.814 97.3109 443.601 89.2807 472.833C81.2504 502.065 80.5796 532.834 87.3281 562.396C101.431 611.491 131.632 671.247 191.308 682.938C201.172 685.529 211.626 684.637 220.905 680.412C230.185 676.188 237.72 668.891 242.239 659.752C246.759 650.613 247.985 640.194 245.712 630.252C243.438 620.31 237.803 611.456 229.76 605.185C213.928 590.414 193.204 580.872 178.441 565.307C166.511 551.934 158.274 535.682 154.544 518.156C150.814 500.63 151.72 482.436 157.172 465.373C169.15 431.359 193.191 402.926 224.739 385.46C239.99 376.182 257.238 370.681 275.048 369.416C292.55 367.805 309.982 373.19 323.532 384.393C332.866 394.631 339.357 407.133 342.359 420.655C345.361 434.178 344.769 448.249 340.642 461.467C332.243 487.794 322.196 513.566 310.563 538.63C298.609 563.764 297.128 592.621 306.447 618.857C309.138 625.37 313.341 631.149 318.708 635.717C324.075 640.285 330.451 643.51 337.31 645.126C349.331 646.305 361.356 642.96 371.037 635.744C380.413 628.222 389.361 620.182 397.84 611.662C414.009 595.521 434.254 584.067 456.422 578.521C467.727 575.465 479.604 575.185 491.044 577.707C502.483 580.228 513.145 585.476 522.122 593.004C529.915 600.983 536.753 609.841 542.499 619.4C548.154 628.069 553.176 637.934 562.814 642.779C564.456 643.724 566.294 644.276 568.184 644.392C570.074 644.509 571.965 644.186 573.709 643.45C577.844 641.927 581.623 639.575 584.815 636.539C588.008 633.503 590.546 629.846 592.275 625.794Z" fill="#AD335A" fill-opacity="0.05"/>
<path d="M-407.236 991.558C-110.35 981.856 193.362 968.225 484.04 1067.19C683.401 1135.24 910.013 1275.6 1019 1524L1019 869.717C877.51 779.623 725.803 719.001 572.886 679.534C343.254 619.887 110.139 607.526 -122.463 594.035C-404.122 578.37 -686.506 550.47 -969.569 546.364C-1082.47 544.613 -1192.13 544.548 -1305 546.17L-1305 1103.02C-1006.54 1042.68 -709.694 1001.06 -407.236 991.558Z" fill="#DF9BB1"/>
<path d="M116.275 1064.79C120.545 1055.06 122.36 1044.43 121.561 1033.83C120.835 1023.23 117.56 1012.96 112.013 1003.89C101.152 985.543 84.6297 971.209 64.9302 963.046C32.0213 948.283 -5.37879 947.106 -39.1371 959.77C-50.7719 964.098 -61.7162 970.092 -71.6275 977.564C-46.2089 933.832 -36.1219 882.858 -42.9659 832.726C-46.1519 807.303 -55.6514 783.078 -70.5983 762.261C-78.0219 751.8 -87.5342 742.991 -98.534 736.392C-109.534 729.793 -121.782 725.546 -134.504 723.921C-154.012 722.715 -173.527 726.132 -191.46 733.894C-249.005 754.896 -300.795 789.14 -342.649 833.86C-363.549 855.814 -378.689 882.601 -386.719 911.833C-394.75 941.065 -395.42 971.834 -388.672 1001.4C-374.569 1050.49 -344.368 1110.25 -284.692 1121.94C-274.828 1124.53 -264.374 1123.64 -255.095 1119.41C-245.815 1115.19 -238.28 1107.89 -233.761 1098.75C-229.241 1089.61 -228.015 1079.19 -230.288 1069.25C-232.562 1059.31 -238.197 1050.46 -246.24 1044.18C-262.072 1029.41 -282.796 1019.87 -297.559 1004.31C-309.489 990.934 -317.726 974.682 -321.456 957.156C-325.186 939.63 -324.28 921.436 -318.828 904.373C-306.85 870.359 -282.809 841.926 -251.261 824.46C-236.01 815.182 -218.762 809.681 -200.952 808.416C-183.45 806.805 -166.018 812.19 -152.468 823.393C-143.134 833.631 -136.643 846.133 -133.641 859.655C-130.639 873.178 -131.231 887.249 -135.358 900.467C-143.757 926.794 -153.804 952.566 -165.437 977.63C-177.391 1002.76 -178.872 1031.62 -169.553 1057.86C-166.862 1064.37 -162.659 1070.15 -157.292 1074.72C-151.925 1079.29 -145.549 1082.51 -138.69 1084.13C-126.669 1085.31 -114.644 1081.96 -104.963 1074.74C-95.5871 1067.22 -86.6387 1059.18 -78.1599 1050.66C-61.9909 1034.52 -41.7455 1023.07 -19.5784 1017.52C-8.27327 1014.46 3.60449 1014.19 15.0438 1016.71C26.4831 1019.23 37.1452 1024.48 46.1222 1032C53.9147 1039.98 60.7528 1048.84 66.4987 1058.4C72.1539 1067.07 77.1761 1076.93 86.8142 1081.78C88.4557 1082.72 90.2936 1083.28 92.1838 1083.39C94.0739 1083.51 95.9651 1083.19 97.7093 1082.45C101.844 1080.93 105.623 1078.57 108.815 1075.54C112.008 1072.5 114.546 1068.85 116.275 1064.79Z" fill="#AD335A" fill-opacity="0.03"/>
</g>
<defs>
<clipPath id="clip0_2402_11138">
<rect width="412" height="2113" fill="white"/>
</clipPath>
</defs>
</svg>
