<svg width="261" height="146" viewBox="0 0 261 146" fill="none" xmlns="http://www.w3.org/2000/svg">
<path d="M257.909 135.335C256.071 136.761 253.911 137.715 251.618 138.113C249.329 138.524 246.975 138.377 244.755 137.684C240.288 136.356 236.372 133.618 233.591 129.881C228.712 123.684 226.473 115.816 227.362 107.982C227.662 105.285 228.351 102.645 229.406 100.144C221.474 107.861 211.192 112.713 200.188 113.933C194.622 114.613 188.975 113.887 183.762 111.822C181.146 110.806 178.77 109.258 176.785 107.276C174.8 105.294 173.249 102.921 172.23 100.308C170.929 96.236 170.614 91.914 171.31 87.6968C172.72 74.3706 177.247 61.5624 184.526 50.3066C188.077 44.7098 192.958 40.0774 198.735 36.8221C204.512 33.5668 211.005 31.7896 217.636 31.6489C228.8 32.0234 243.092 35.2511 248.749 47.3105C249.806 49.2642 250.158 51.5212 249.747 53.7035C249.336 55.8857 248.186 57.8606 246.491 59.297C244.797 60.7334 242.659 61.5442 240.437 61.5934C238.215 61.6426 236.043 60.9273 234.286 59.5673C230.306 57.0002 227.185 53.112 223.095 50.8105C219.625 48.9891 215.738 48.1057 211.82 48.2479C207.902 48.39 204.09 49.5527 200.761 51.6208C194.167 55.9665 189.403 62.5828 187.375 70.2104C186.216 73.9378 185.964 77.8875 186.639 81.7318C187.233 85.5243 189.306 88.9275 192.405 91.1968C195.075 92.631 198.075 93.3422 201.106 93.2598C204.137 93.1774 207.093 92.3042 209.682 90.727C214.825 87.5546 219.763 84.0613 224.465 80.2678C229.155 76.3929 235.192 74.5343 241.252 75.0995C242.778 75.324 244.229 75.9079 245.486 76.8029C246.742 77.698 247.767 78.8786 248.477 80.2474C249.362 82.7355 249.289 85.4636 248.272 87.9011C247.173 90.2896 245.942 92.6152 244.585 94.8671C242.019 99.1569 240.662 104.06 240.659 109.058C240.618 111.614 241.194 114.143 242.338 116.43C243.481 118.718 245.159 120.697 247.229 122.2C249.338 123.426 251.581 124.404 253.915 125.114C256.055 125.856 258.414 126.394 259.954 128.178C260.243 128.475 260.459 128.835 260.584 129.23C260.71 129.625 260.741 130.044 260.676 130.453C260.576 131.413 260.278 132.342 259.802 133.182C259.326 134.022 258.682 134.755 257.909 135.335Z" fill="white"/>
<path d="M108.108 103.086C107.354 105.285 106.072 107.265 104.373 108.853C102.686 110.452 100.638 111.62 98.4027 112.258C93.9359 113.604 89.1526 113.465 84.7715 111.863C77.2857 109.368 71.0887 104.021 67.528 96.9846C66.2954 94.5656 65.4207 91.9806 64.9313 89.3105C62.5479 100.113 56.6233 109.811 48.0968 116.868C43.8186 120.489 38.7013 122.982 33.2115 124.12C30.4668 124.705 27.6305 124.715 24.8819 124.149C22.1332 123.582 19.532 122.453 17.2426 120.831C13.9224 118.137 11.2859 114.698 9.54779 110.794C3.39156 98.8947 0.122937 85.7156 0.00596761 72.3211C-0.108326 65.6932 1.4207 59.14 4.45673 53.2457C7.49277 47.3515 11.9414 42.2994 17.4062 38.5399C26.948 32.7247 40.661 27.5768 52.0021 34.5292C53.9742 35.5724 55.5256 37.2637 56.3943 39.3173C57.2629 41.3709 57.3956 43.6611 56.77 45.8012C56.1444 47.9413 54.7987 49.8001 52.9603 51.0638C51.1219 52.3275 48.9033 52.9186 46.6791 52.7374C41.9423 52.7714 37.1918 51.2393 32.5095 51.5594C28.6078 51.9459 24.8745 53.3426 21.6783 55.6116C18.4821 57.8805 15.9337 60.9432 14.2846 64.4972C11.1762 71.7455 10.8367 79.8813 13.3305 87.363C14.4122 91.1142 16.375 94.5529 19.0556 97.3932C21.6355 100.243 25.2402 101.957 29.0813 102.16C32.1005 101.894 34.9973 100.842 37.4833 99.1099C39.9694 97.3776 41.9579 95.025 43.2509 92.2862C45.7971 86.805 47.9961 81.1693 49.8348 75.4126C51.6319 69.5971 55.6671 64.7328 61.0532 61.8892C62.4511 61.2392 63.9838 60.9311 65.5245 60.9903C67.0652 61.0495 68.5697 61.4743 69.9135 62.2297C72.0238 63.8193 73.4648 66.138 73.9551 68.7326C74.351 71.3314 74.6013 73.9503 74.7048 76.577C74.9181 81.5688 76.4821 86.4095 79.2304 90.5838C80.5982 92.7495 82.4695 94.5528 84.685 95.8404C86.9006 97.1279 89.3947 97.8616 91.9551 97.9788C94.3917 97.848 96.8047 97.4343 99.1455 96.7463C101.34 96.1879 103.61 95.3436 105.879 95.9905C106.284 96.0814 106.661 96.2646 106.983 96.5256C107.305 96.7867 107.561 97.1186 107.733 97.4953C108.173 98.3526 108.434 99.2906 108.498 100.252C108.563 101.213 108.43 102.178 108.108 103.086Z" fill="white"/>
<path d="M216.004 120.7C211.233 116.757 204.67 118.262 199.647 121.265C194.297 124.479 188.926 129.981 182.219 129.824C174.143 129.634 169.883 121.571 168.05 114.721C166.067 107.292 166.142 99.4817 166.148 91.8484C166.148 69.7452 170.919 48.0301 174.811 26.3763C176.235 18.457 178.185 5.8597 169.188 1.52214C159.837 -2.98566 155.25 6.37041 153.635 13.9492C150.738 27.568 151.318 41.5135 151.065 55.357C150.906 62.8155 150.952 70.2718 151.202 77.7257C151.44 84.9981 152.115 92.2433 152.565 99.4749C152.947 105.447 153.308 111.432 154.535 117.309C155.836 123.58 158.133 129.749 162.032 134.849C169.652 144.866 182.376 147.883 194.269 144.907C200.955 143.154 207.225 140.09 212.712 135.891C216.297 133.208 219.985 129.313 218.547 124.445C218.101 122.966 217.214 121.66 216.004 120.7Z" fill="white"/>
<path d="M145.645 77.3889C145.406 84.6613 144.731 91.9064 144.281 99.138C143.9 105.117 143.538 111.095 142.312 116.972C141.01 123.243 138.72 129.412 134.815 134.513C127.188 144.529 114.47 147.546 102.577 144.57C95.8926 142.817 89.6236 139.755 84.1338 135.561C80.5556 132.872 76.8547 128.977 78.2996 124.108C78.7484 122.628 79.6404 121.321 80.8555 120.363C85.6264 116.413 92.1898 117.925 97.1788 120.928C102.529 124.142 107.9 129.644 114.613 129.48C122.683 129.297 126.943 121.241 128.776 114.391C130.766 106.955 130.684 99.1448 130.684 91.5183C130.684 87.1467 130.493 82.7887 130.159 78.4443C125.677 81.3112 120.768 83.4487 115.615 84.777C105.017 87.4259 93.1917 85.2264 85.4628 77.1573C81.5711 72.9638 78.7082 67.9239 77.1001 62.4355C75.3144 56.6407 75.403 50.9685 75.4439 44.9831C75.3755 39.2178 75.7309 33.4552 76.5071 27.7418C76.8479 24.807 77.3114 21.8789 77.9316 18.9645C79.5401 11.3857 84.3246 2.62207 93.6824 7.13668C99.3735 9.86043 100.443 17.6571 99.5302 23.2C98.2966 30.6426 95.1887 35.9675 93.2258 43.2127C91.556 49.3411 89.893 56.5795 92.6192 62.6534C94.7661 67.42 100.232 69.6126 105.194 69.6194C109.372 69.6194 113.373 68.2575 117.149 66.5007C120.434 64.9754 123.603 63.4297 125.518 60.1816C128.524 55.095 128.299 49.8178 127.256 44.5201C126.043 38.3916 123.167 32.5628 121.96 26.4004C120.87 20.7963 120.011 14.9538 121.408 9.31568C122.281 5.80885 124.319 2.77869 127.638 1.17849C136.996 -3.32931 141.576 6.01994 143.191 13.5988C146.088 27.2175 145.508 41.1699 145.76 55.0065C145.928 62.4695 145.89 69.9303 145.645 77.3889Z" fill="white"/>
</svg>
